<svg width="1280" height="720" viewBox="0 0 1280 720" fill="none" xmlns="http://www.w3.org/2000/svg">
  <defs>
    <linearGradient id="sd1" x1="0" y1="0" x2="1" y2="1">
      <stop offset="0%" stop-color="#3B82F6"/>
      <stop offset="100%" stop-color="#1D4ED8"/>
    </linearGradient>
  </defs>
  <rect width="1280" height="720" fill="url(#sd1)"/>
  <g transform="translate(320,220)" opacity="0.9">
    <rect x="0" y="0" width="640" height="280" rx="24" fill="#0B1020" opacity="0.25"/>
    <g transform="translate(36,36)">
      <rect x="0" y="0" width="280" height="160" rx="16" fill="#111827" opacity="0.6"/>
      <rect x="24" y="112" width="64" height="36" rx="8" fill="#34D399"/>
      <rect x="104" y="72" width="64" height="76" rx="8" fill="#A78BFA"/>
      <rect x="184" y="24" width="64" height="124" rx="8" fill="#60A5FA"/>
    </g>
    <g transform="translate(360,36)">
      <rect x="0" y="0" width="244" height="160" rx="16" fill="#111827" opacity="0.6"/>
      <rect x="24" y="28" width="196" height="20" rx="10" fill="#E5E7EB"/>
      <rect x="24" y="60" width="160" height="12" rx="6" fill="#CBD5E1"/>
      <rect x="24" y="84" width="196" height="12" rx="6" fill="#CBD5E1"/>
    </g>
  </g>
  <text x="80" y="640" fill="#ffffff" font-size="40" font-family="Inter, system-ui, -apple-system, Segoe UI, Roboto, Helvetica, Arial" opacity="0.95">智能数据仪表板</text>
</svg>

